<svg width="64" height="64" viewBox="0 0 64 64" fill="none" xmlns="http://www.w3.org/2000/svg">
<path fill-rule="evenodd" clip-rule="evenodd" d="M58.6667 10.6667C58.6667 15.085 55.085 18.6667 50.6667 18.6667C47.1835 18.6667 44.2202 16.4405 43.1219 13.3334H18.6667C14.2484 13.3334 10.6667 16.9151 10.6667 21.3334V22.0247C10.6667 26.443 14.2484 30.0247 18.6667 30.0247H45.6791C52.8519 30.0247 58.6667 35.8395 58.6667 43.0124C58.6667 50.1852 52.8519 56 45.6791 56H41.1047L41.8857 56.7811C42.9271 57.8225 42.9271 59.5109 41.8857 60.5523C40.8443 61.5937 39.1559 61.5937 38.1145 60.5523L30.8955 53.3334L38.1145 46.1144C39.1559 45.073 40.8443 45.073 41.8857 46.1144C42.9271 47.1558 42.9271 48.8442 41.8857 49.8856L41.1047 50.6667H45.6791C49.9064 50.6667 53.3334 47.2397 53.3334 43.0124C53.3334 38.785 49.9064 35.358 45.6791 35.358H18.6667C11.3029 35.358 5.33337 29.3885 5.33337 22.0247V21.3334C5.33337 13.9696 11.3029 8.00002 18.6667 8.00002H43.1219C44.2202 4.89284 47.1835 2.66669 50.6667 2.66669C55.085 2.66669 58.6667 6.24841 58.6667 10.6667ZM13.3334 61.3334C17.7517 61.3334 21.3334 57.7516 21.3334 53.3334C21.3334 48.9151 17.7517 45.3334 13.3334 45.3334C8.9151 45.3334 5.33337 48.9151 5.33337 53.3334C5.33337 57.7516 8.9151 61.3334 13.3334 61.3334Z" fill="#7C7E92" fill-opacity="0.56"/>
</svg>
