<svg width="24" height="24" viewBox="0 0 24 24" fill="none" xmlns="http://www.w3.org/2000/svg">
<path d="M3 11.5C3 9.99513 4.24226 8.75 5.80597 8.75C7.36968 8.75 8.61194 9.99513 8.61194 11.5C8.61194 13.0049 7.36968 14.25 5.80597 14.25C4.24225 14.25 3 13.0049 3 11.5Z" stroke="white" stroke-width="2"/>
<path d="M18 6.75C18 8.25487 16.7577 9.5 15.194 9.5C13.6303 9.5 12.3881 8.25487 12.3881 6.75C12.3881 5.24513 13.6303 4 15.194 4C16.7577 4 18 5.24513 18 6.75Z" stroke="white" stroke-width="2"/>
<path d="M18 17.25C18 18.7549 16.7577 20 15.194 20C13.6303 20 12.3881 18.7549 12.3881 17.25C12.3881 15.7451 13.6303 14.5 15.194 14.5C16.7577 14.5 18 15.7451 18 17.25Z" stroke="white" stroke-width="2"/>
<path d="M13.1811 8.8515C13.6514 8.5619 13.7978 7.94591 13.5082 7.47564C13.2186 7.00537 12.6027 6.85891 12.1324 7.1485L13.1811 8.8515ZM12.1324 7.1485L8.07269 9.6485L9.12141 11.3515L13.1811 8.8515L12.1324 7.1485Z" fill="white"/>
<path d="M12.6567 16L8.08954 12.5" stroke="white" stroke-width="2"/>
</svg>
