<svg width="24" height="24" viewBox="0 0 24 24" fill="none" xmlns="http://www.w3.org/2000/svg">
<path fill-rule="evenodd" clip-rule="evenodd" d="M2.56556 2.09929C2.91134 1.93251 3.32208 1.9784 3.62252 2.21739L8.6835 6.24317L14.2394 2.19199C14.5905 1.936 15.0667 1.936 15.4177 2.19199L21.5892 6.69199C21.8473 6.88023 22 7.18049 22 7.49999V21C22 21.3763 21.7887 21.7208 21.4532 21.8914C21.1178 22.062 20.7149 22.0297 20.4108 21.808L14.8286 17.7376L9.24632 21.808C8.88271 22.0731 8.38679 22.0627 8.03462 21.7826L2.37748 17.2826C2.13897 17.0929 2 16.8048 2 16.5V2.99999C2 2.61609 2.21978 2.26608 2.56556 2.09929ZM13.8281 4.9671L9.64062 8.02048V19.0453L13.8281 15.9919V4.9671ZM15.8281 4.96645V15.9912L20 19.0332V8.00844L15.8281 4.96645ZM4 5.07324L7.64062 7.96919V18.9136L4 16.0177V5.07324Z" fill="#3B3E5B"/>
</svg>
