<svg width="24" height="24" viewBox="0 0 24 24" fill="none" xmlns="http://www.w3.org/2000/svg">
<path fill-rule="evenodd" clip-rule="evenodd" d="M3.64037 3.4182C4.98464 2.34239 6.69243 1.84578 8.3966 2.04199C9.69437 2.19141 10.9708 2.67698 11.9957 3.55689C12.9952 2.68307 14.2253 2.19269 15.5342 2.04199C17.2364 1.846 18.9423 2.34127 20.2858 3.41456C21.8661 4.50306 22.6463 6.19403 22.9008 7.87031C23.1562 9.55155 22.9025 11.3159 22.3154 12.6959C21.3871 14.8814 19.6251 16.766 17.91 18.2209C16.1809 19.6876 14.4179 20.7855 13.3869 21.3794C12.5236 21.8767 11.4707 21.8734 10.6105 21.372C9.58816 20.7761 7.84467 19.6783 6.127 18.2133C4.42259 16.7595 2.66827 14.8812 1.7166 12.7068C1.10902 11.3303 0.847789 9.56462 1.08908 7.88449C1.32968 6.20915 2.09008 4.51083 3.64037 3.4182ZM18.5756 6.18251C18.1239 5.86462 17.5001 5.97304 17.1822 6.42467C16.8643 6.87629 16.9728 7.50011 17.4244 7.81799C17.5929 7.9366 17.8424 8.29932 17.9514 8.90727C18.0554 9.48779 17.9923 10.0999 17.7668 10.5603C17.5238 11.0562 17.7288 11.6553 18.2248 11.8983C18.7207 12.1413 19.3198 11.9362 19.5628 11.4402C20.0115 10.5243 20.0833 9.46539 19.92 8.55441C19.7616 7.67085 19.3416 6.72167 18.5756 6.18251Z" fill="#252849"/>
</svg>
